HIERARCHY
ROOT Hips
{
	OFFSET -0.001795 -0.223333 0.028219
	CHANNELS 6 Xposition Yposition Zposition Zrotation Yrotation Xrotation 
	JOINT LeftUpLeg
	{
		OFFSET 0.069520 -0.091406 -0.006815
		CHANNELS 3 Zrotation Yrotation Xrotation
		JOINT LeftLeg
		{
			OFFSET 0.034277 -0.375199 -0.004496
			CHANNELS 3 Zrotation Yrotation Xrotation
			JOINT LeftFoot
			{
				OFFSET -0.013596 -0.397961 -0.043693
				CHANNELS 3 Zrotation Yrotation Xrotation
				JOINT LeftToe
				{
					OFFSET 0.026358 -0.055791 0.119288
					CHANNELS 3 Zrotation Yrotation Xrotation
					End Site
					{
						OFFSET 0.000000 0.000000 0.000000
					}
				}
			}
		}
	}
	JOINT RightUpLeg
	{
		OFFSET -0.067670 -0.090522 -0.004320
		CHANNELS 3 Zrotation Yrotation Xrotation
		JOINT RightLeg
		{
			OFFSET -0.038290 -0.382569 -0.008850
			CHANNELS 3 Zrotation Yrotation Xrotation
			JOINT RightFoot
			{
				OFFSET 0.015774 -0.398415 -0.042312
				CHANNELS 3 Zrotation Yrotation Xrotation
				JOINT RightToe
				{
					OFFSET -0.025372 -0.048144 0.123348
					CHANNELS 3 Zrotation Yrotation Xrotation
					End Site
					{
						OFFSET 0.000000 0.000000 0.000000
					}
				}
			}
		}
	}
	JOINT Spine
	{
		OFFSET -0.002533 0.108963 -0.026696
		CHANNELS 3 Zrotation Yrotation Xrotation
		JOINT Spine1
		{
			OFFSET 0.005487 0.135180 0.001092
			CHANNELS 3 Zrotation Yrotation Xrotation
			JOINT Spine2
			{
				OFFSET 0.001457 0.052922 0.025425
				CHANNELS 3 Zrotation Yrotation Xrotation
				JOINT Neck
				{
					OFFSET -0.002778 0.213870 -0.042857
					CHANNELS 3 Zrotation Yrotation Xrotation
					JOINT Head
					{
						OFFSET 0.005152 0.064970 0.051349
						CHANNELS 3 Zrotation Yrotation Xrotation
						End Site
						{
							OFFSET 0.000000 0.000000 0.000000
						}
					}
				}
				JOINT LeftShoulder
				{
					OFFSET 0.078845 0.121749 -0.034090
					CHANNELS 3 Zrotation Yrotation Xrotation
					JOINT LeftArm
					{
						OFFSET 0.090977 0.030469 -0.008868
						CHANNELS 3 Zrotation Yrotation Xrotation
						JOINT LeftForeArm
						{
							OFFSET 0.259612 -0.012772 -0.027456
							CHANNELS 3 Zrotation Yrotation Xrotation
							JOINT LeftHand
							{
								OFFSET 0.249234 0.008986 -0.001171
								CHANNELS 3 Zrotation Yrotation Xrotation
								End Site
								{
									OFFSET 0.000000 0.000000 0.000000
								}
							}
						}
					}
				}
				JOINT RightShoulder
				{
					OFFSET -0.081759 0.118833 -0.038615
					CHANNELS 3 Zrotation Yrotation Xrotation
					JOINT RightArm
					{
						OFFSET -0.096012 0.032551 -0.009143
						CHANNELS 3 Zrotation Yrotation Xrotation
						JOINT RightForeArm
						{
							OFFSET -0.253742 -0.013329 -0.021401
							CHANNELS 3 Zrotation Yrotation Xrotation
							JOINT RightHand
							{
								OFFSET -0.255298 0.007772 -0.005559
								CHANNELS 3 Zrotation Yrotation Xrotation
								End Site
								{
									OFFSET 0.000000 0.000000 0.000000
								}
							}
						}
					}
				}
			}
		}
	}
}
MOTION
Frames: 7
Frame Time: 0.050000
0.592818 0.875924 -0.358931 -178.175726 19.264780 172.875963 1.595834 -24.034211 23.471444 -22.531858 -11.009518 28.614762 35.570951 4.089273 34.398542 0.000000 0.000000 0.000000 2.377710 -15.214070 -22.696000 -9.483754 -18.948043 25.015619 29.833891 2.128020 0.140341 0.000000 0.000000 0.000000 -0.111820 -1.730631 11.628521 1.240717 -13.593512 -2.415943 4.014634 0.618254 6.269809 -14.415671 -9.130785 -13.285502 0.000000 0.000000 0.000000 -21.279359 -12.726610 -61.252153 -31.813621 41.422194 -5.141057 -52.811581 -29.027600 14.936046 0.000000 0.000000 0.000000 28.686996 -16.016150 32.053919 42.148612 23.685306 -1.945393 -2.519806 14.969479 -1.222920 0.000000 0.000000 0.000000 
0.640303 0.881566 -0.402780 -177.135620 19.824703 172.251698 7.638969 -19.665831 14.547211 -40.915818 -17.143816 44.985266 36.340356 4.371840 54.623015 0.000000 0.000000 0.000000 2.707043 -10.205436 -17.683063 -9.578387 -22.492115 26.596739 32.120668 1.916856 -4.478966 0.000000 0.000000 0.000000 -0.334441 -2.066229 12.244986 2.810481 -12.429424 -3.398575 4.096838 -0.088730 7.544512 -12.233910 -8.354980 -13.384615 0.000000 0.000000 0.000000 -21.722352 -12.024202 -62.159958 -31.384561 44.521845 -5.499213 -49.322605 -25.126368 11.417469 0.000000 0.000000 0.000000 27.167175 -13.214923 34.061875 41.801012 27.128097 -0.281702 -4.880606 17.884306 -1.749169 0.000000 0.000000 0.000000 
0.679881 0.889679 -0.441587 -177.255432 22.024083 171.833452 9.538059 -13.516271 6.431892 -57.288573 -19.155775 57.299162 44.022708 4.661702 64.921158 0.000000 0.000000 0.000000 3.777723 -6.291871 -13.426997 -8.628354 -22.866217 25.679611 31.527224 0.607426 -6.910809 0.000000 0.000000 0.000000 -1.063439 -2.730266 13.847731 3.688813 -10.928142 -4.379337 3.827354 0.955349 8.380944 -9.708051 -6.313411 -15.271874 0.000000 0.000000 0.000000 -21.382373 -10.403493 -60.886887 -33.395263 45.224216 -7.378251 -44.619554 -20.838012 7.419957 0.000000 0.000000 0.000000 27.171803 -11.446731 35.268367 38.880910 32.072980 0.627352 -6.796456 19.437563 -2.148358 0.000000 0.000000 0.000000 
0.712906 0.900635 -0.476134 -177.809928 24.829500 171.020498 8.544146 -8.200307 -0.525928 -67.809233 -19.100745 64.590330 51.581900 5.248722 73.192235 0.000000 0.000000 0.000000 4.287596 -3.950779 -9.093449 -6.557641 -21.126554 22.809158 28.887934 -2.165959 -8.285136 0.000000 0.000000 0.000000 -1.527596 -2.836973 14.268879 2.297036 -10.370034 -3.961016 5.332749 3.676799 9.505583 -8.844382 -5.778988 -15.362487 0.000000 0.000000 0.000000 -21.797624 -10.409268 -61.037005 -32.066052 46.390733 -6.961984 -41.900839 -18.584365 5.905694 0.000000 0.000000 0.000000 25.449864 -10.105170 34.776938 38.045114 36.397641 3.131776 -10.000121 22.842839 -2.781975 0.000000 0.000000 0.000000 
0.740726 0.909364 -0.507102 -178.527030 26.350589 170.441933 6.898304 -5.284329 -6.551353 -68.643729 -20.211517 65.297400 56.973016 3.027401 75.850309 0.000000 0.000000 0.000000 4.642096 -2.878319 -5.342255 -5.578602 -19.329401 20.565098 28.613015 -3.991557 -9.509372 0.000000 0.000000 0.000000 -1.354563 -3.236567 15.249198 1.538273 -9.003548 -4.857435 5.458760 6.546681 10.561313 -7.539639 -6.275516 -16.073001 0.000000 0.000000 0.000000 -20.752310 -12.030915 -61.338145 -30.211757 48.624504 -6.644261 -40.345186 -15.425595 4.295036 0.000000 0.000000 0.000000 24.538534 -9.982218 35.936064 35.295171 40.250512 4.247233 -12.351517 25.040623 -3.374857 0.000000 0.000000 0.000000 
0.764624 0.914088 -0.535425 -179.549247 28.824512 170.010517 4.684258 -3.801786 -11.133997 -59.177619 -22.194072 59.309897 59.999613 -0.543767 70.542447 0.000000 0.000000 0.000000 4.405192 -2.650200 -1.739840 -4.747386 -17.589170 18.793064 28.782036 -4.249952 -10.362070 0.000000 0.000000 0.000000 -1.285298 -3.333507 15.563981 0.723862 -8.227234 -4.905233 5.829864 9.224929 11.347922 -7.441304 -6.571588 -15.286804 0.000000 0.000000 0.000000 -21.037568 -12.168897 -61.284008 -28.650299 50.013458 -6.127009 -38.518934 -14.878785 3.676619 0.000000 0.000000 0.000000 23.134107 -8.215683 36.645651 33.019358 42.835392 5.133260 -14.354340 26.521549 -3.860484 0.000000 0.000000 0.000000 
0.785474 0.915976 -0.562387 -179.822425 29.888573 170.300711 3.905778 -3.960345 -14.886740 -47.361317 -22.634605 50.586518 61.216813 -5.469761 62.554099 0.000000 0.000000 0.000000 4.254661 -2.769036 0.209257 -4.204771 -17.413296 18.302556 30.308475 -3.083100 -11.842482 0.000000 0.000000 0.000000 -0.660771 -3.413209 15.731725 0.299489 -7.368311 -5.604267 6.112122 10.761236 12.525469 -7.552384 -6.724973 -16.452092 0.000000 0.000000 0.000000 -21.019613 -12.764542 -62.624134 -25.920042 52.439220 -4.807348 -37.589501 -13.551042 3.097242 0.000000 0.000000 0.000000 22.634606 -7.651099 38.242710 28.591723 45.366426 4.680284 -16.280709 27.640690 -4.419023 0.000000 0.000000 0.000000 
